<svg xmlns="http://www.w3.org/2000/svg" viewBox="0 0 32 32" fill="none" stroke="#FFD700" stroke-width="2" stroke-linecap="round" stroke-linejoin="round" stroke-opacity="0.8">
  <!-- Cuerpo de la bombilla -->
  <path d="M16 4C10 4 6 8 6 13C6 17 8 20 11 22V25C11 26 12 27 13 27H19C20 27 21 26 21 25V22C24 20 26 17 26 13C26 8 22 4 16 4Z"/>
  <!-- Base de la bombilla -->
  <path d="M13 27V29C13 30 14 31 16 31C18 31 19 30 19 29V27"/>
  <!-- Filamento -->
  <path d="M16 8C14 8 12 9 12 11C12 13 14 14 16 14C18 14 20 13 20 11C20 9 18 8 16 8Z"/>
  <path d="M12 11L14 13"/>
  <path d="M18 11L16 13"/>
</svg> 